<svg width="76" height="66" viewBox="0 0 76 66" fill="none" xmlns="http://www.w3.org/2000/svg">
<path d="M32.0625 0H52C65.2548 0 76 10.7452 76 24C76 37.2548 65.2548 48 52 48H32.0625V0Z" fill="#322547"/>
<path d="M16.625 0H36.5625C49.8173 0 60.5625 10.7452 60.5625 24C60.5625 37.2548 49.8173 48 36.5625 48H16.625V0Z" fill="#453F78"/>
<path d="M1.1875 0H21.125C34.3798 0 45.125 10.7452 45.125 24C45.125 37.2548 34.3798 48 21.125 48H1.1875V0Z" fill="#736CB2"/>
<path d="M5.09091 65.3999H1.14773V53.7635H5.17045C6.32576 53.7635 7.31818 53.9965 8.14773 54.4624C8.98106 54.9245 9.62121 55.5893 10.0682 56.4567C10.5152 57.3241 10.7386 58.362 10.7386 59.5704C10.7386 60.7825 10.5133 61.8241 10.0625 62.6954C9.61553 63.5666 8.9697 64.2351 8.125 64.701C7.28409 65.1669 6.27273 65.3999 5.09091 65.3999ZM3.25568 63.576H4.98864C5.79924 63.576 6.47538 63.4283 7.01705 63.1329C7.55871 62.8336 7.96591 62.3885 8.23864 61.7976C8.51136 61.2029 8.64773 60.4605 8.64773 59.5704C8.64773 58.6802 8.51136 57.9416 8.23864 57.3544C7.96591 56.7635 7.5625 56.3223 7.02841 56.0306C6.49811 55.7351 5.83902 55.5874 5.05114 55.5874H3.25568V63.576ZM16.4574 65.5704C15.6051 65.5704 14.8665 65.3829 14.2415 65.0079C13.6165 64.6329 13.1316 64.1082 12.7869 63.434C12.446 62.7598 12.2756 61.9719 12.2756 61.0704C12.2756 60.1688 12.446 59.3791 12.7869 58.701C13.1316 58.023 13.6165 57.4965 14.2415 57.1215C14.8665 56.7465 15.6051 56.559 16.4574 56.559C17.3097 56.559 18.0483 56.7465 18.6733 57.1215C19.2983 57.4965 19.7813 58.023 20.1222 58.701C20.4669 59.3791 20.6392 60.1688 20.6392 61.0704C20.6392 61.9719 20.4669 62.7598 20.1222 63.434C19.7813 64.1082 19.2983 64.6329 18.6733 65.0079C18.0483 65.3829 17.3097 65.5704 16.4574 65.5704ZM16.4688 63.9226C16.9309 63.9226 17.3172 63.7957 17.6278 63.5419C17.9384 63.2844 18.1695 62.9397 18.321 62.5079C18.4763 62.076 18.554 61.595 18.554 61.0647C18.554 60.5306 18.4763 60.0476 18.321 59.6158C18.1695 59.1802 17.9384 58.8336 17.6278 58.576C17.3172 58.3185 16.9309 58.1897 16.4688 58.1897C15.9953 58.1897 15.6013 58.3185 15.2869 58.576C14.9763 58.8336 14.7434 59.1802 14.5881 59.6158C14.4366 60.0476 14.3608 60.5306 14.3608 61.0647C14.3608 61.595 14.4366 62.076 14.5881 62.5079C14.7434 62.9397 14.9763 63.2844 15.2869 63.5419C15.6013 63.7957 15.9953 63.9226 16.4688 63.9226ZM26.7429 56.6726V58.2635H21.7259V56.6726H26.7429ZM22.9645 54.5817H25.0213V62.7749C25.0213 63.0514 25.063 63.2635 25.1463 63.4113C25.2334 63.5552 25.3471 63.6537 25.4872 63.7067C25.6274 63.7598 25.7827 63.7863 25.9531 63.7863C26.0819 63.7863 26.1993 63.7768 26.3054 63.7579C26.4152 63.7389 26.4986 63.7219 26.5554 63.7067L26.902 65.3147C26.7921 65.3526 26.6349 65.3942 26.4304 65.4397C26.2296 65.4851 25.9834 65.5116 25.6918 65.5192C25.1766 65.5344 24.7126 65.4567 24.2997 65.2863C23.8868 65.112 23.5592 64.8431 23.3168 64.4794C23.0781 64.1158 22.9607 63.6613 22.9645 63.1158V54.5817ZM37.1378 65.3999H33.1946V53.7635H37.2173C38.3726 53.7635 39.3651 53.9965 40.1946 54.4624C41.0279 54.9245 41.6681 55.5893 42.1151 56.4567C42.562 57.3241 42.7855 58.362 42.7855 59.5704C42.7855 60.7825 42.5601 61.8241 42.1094 62.6954C41.6624 63.5666 41.0166 64.2351 40.1719 64.701C39.331 65.1669 38.3196 65.3999 37.1378 65.3999ZM35.3026 63.576H37.0355C37.8461 63.576 38.5223 63.4283 39.0639 63.1329C39.6056 62.8336 40.0128 62.3885 40.2855 61.7976C40.5582 61.2029 40.6946 60.4605 40.6946 59.5704C40.6946 58.6802 40.5582 57.9416 40.2855 57.3544C40.0128 56.7635 39.6094 56.3223 39.0753 56.0306C38.545 55.7351 37.8859 55.5874 37.098 55.5874H35.3026V63.576ZM48.5043 65.5704C47.652 65.5704 46.9134 65.3829 46.2884 65.0079C45.6634 64.6329 45.1785 64.1082 44.8338 63.434C44.4929 62.7598 44.3224 61.9719 44.3224 61.0704C44.3224 60.1688 44.4929 59.3791 44.8338 58.701C45.1785 58.023 45.6634 57.4965 46.2884 57.1215C46.9134 56.7465 47.652 56.559 48.5043 56.559C49.3565 56.559 50.0952 56.7465 50.7202 57.1215C51.3452 57.4965 51.8281 58.023 52.169 58.701C52.5137 59.3791 52.6861 60.1688 52.6861 61.0704C52.6861 61.9719 52.5137 62.7598 52.169 63.434C51.8281 64.1082 51.3452 64.6329 50.7202 65.0079C50.0952 65.3829 49.3565 65.5704 48.5043 65.5704ZM48.5156 63.9226C48.9777 63.9226 49.3641 63.7957 49.6747 63.5419C49.9853 63.2844 50.2164 62.9397 50.3679 62.5079C50.5232 62.076 50.6009 61.595 50.6009 61.0647C50.6009 60.5306 50.5232 60.0476 50.3679 59.6158C50.2164 59.1802 49.9853 58.8336 49.6747 58.576C49.3641 58.3185 48.9777 58.1897 48.5156 58.1897C48.0421 58.1897 47.6482 58.3185 47.3338 58.576C47.0232 58.8336 46.7902 59.1802 46.6349 59.6158C46.4834 60.0476 46.4077 60.5306 46.4077 61.0647C46.4077 61.595 46.4834 62.076 46.6349 62.5079C46.7902 62.9397 47.0232 63.2844 47.3338 63.5419C47.6482 63.7957 48.0421 63.9226 48.5156 63.9226ZM56.4886 60.2863V65.3999H54.4318V56.6726H56.3977V58.1556H56.5C56.7008 57.6669 57.0208 57.2787 57.4602 56.9908C57.9034 56.7029 58.4508 56.559 59.1023 56.559C59.7045 56.559 60.2292 56.6878 60.6761 56.9454C61.1269 57.2029 61.4754 57.576 61.7216 58.0647C61.9716 58.5533 62.0947 59.1461 62.0909 59.8431V65.3999H60.0341V60.1613C60.0341 59.5779 59.8826 59.1215 59.5795 58.7919C59.2803 58.4624 58.8655 58.2976 58.3352 58.2976C57.9754 58.2976 57.6553 58.3772 57.375 58.5363C57.0985 58.6916 56.8807 58.9169 56.7216 59.2124C56.5663 59.5079 56.4886 59.8658 56.4886 60.2863ZM68.0455 65.5704C67.1705 65.5704 66.4148 65.3885 65.7784 65.0249C65.1458 64.6575 64.6591 64.1385 64.3182 63.4681C63.9773 62.7938 63.8068 62.0003 63.8068 61.0874C63.8068 60.1897 63.9773 59.4018 64.3182 58.7238C64.6629 58.0419 65.1439 57.5116 65.7614 57.1329C66.3788 56.7503 67.1042 56.559 67.9375 56.559C68.4754 56.559 68.983 56.6461 69.4602 56.8204C69.9413 56.9908 70.3655 57.256 70.733 57.6158C71.1042 57.9757 71.3958 58.434 71.608 58.9908C71.8201 59.5438 71.9261 60.2029 71.9261 60.9681V61.5988H64.7727V60.2124H69.9545C69.9508 59.8185 69.8655 59.4681 69.6989 59.1613C69.5322 58.8507 69.2992 58.6063 69 58.4283C68.7045 58.2503 68.3598 58.1613 67.9659 58.1613C67.5455 58.1613 67.1761 58.2635 66.858 58.4681C66.5398 58.6688 66.2917 58.934 66.1136 59.2635C65.9394 59.5893 65.8504 59.9473 65.8466 60.3374V61.5476C65.8466 62.0552 65.9394 62.4908 66.125 62.8544C66.3106 63.2143 66.5701 63.4908 66.9034 63.684C67.2367 63.8734 67.6269 63.9681 68.0739 63.9681C68.3731 63.9681 68.6439 63.9264 68.8864 63.8431C69.1288 63.756 69.339 63.6291 69.517 63.4624C69.6951 63.2957 69.8295 63.0893 69.9205 62.8431L71.8409 63.059C71.7197 63.5666 71.4886 64.0098 71.1477 64.3885C70.8106 64.7635 70.3788 65.0552 69.8523 65.2635C69.3258 65.4681 68.7235 65.5704 68.0455 65.5704Z" fill="#736CB2"/>
<path d="M29.7301 65.5249C29.3854 65.5249 29.09 65.4037 28.8438 65.1613C28.5975 64.9188 28.4763 64.6234 28.4801 64.2749C28.4763 63.934 28.5975 63.6423 28.8438 63.3999C29.09 63.1575 29.3854 63.0363 29.7301 63.0363C30.0634 63.0363 30.3532 63.1575 30.5994 63.3999C30.8494 63.6423 30.9763 63.934 30.9801 64.2749C30.9763 64.506 30.9157 64.7162 30.7983 64.9056C30.6847 65.095 30.5331 65.2465 30.3438 65.3601C30.1581 65.47 29.9536 65.5249 29.7301 65.5249Z" fill="#453F78"/>
</svg>
